<?xml version="1.0" standalone="no"?>
<!DOCTYPE svg PUBLIC "-//W3C//DTD SVG 20010904//EN"
 "http://www.w3.org/TR/2001/REC-SVG-20010904/DTD/svg10.dtd">
<svg version="1.0" xmlns="http://www.w3.org/2000/svg"
 width="300.000000pt" height="77.000000pt" viewBox="0 0 300.000000 77.000000"
 preserveAspectRatio="xMidYMid meet">
<metadata>
Created by potrace 1.10, written by Peter Selinger 2001-2011
</metadata>
<g transform="translate(0.000000,77.000000) scale(0.100000,-0.100000)"
fill="#000000" stroke="none">
<path d="M135 656 c-23 -9 -60 -37 -87 -66 l-48 -51 0 -141 c0 -128 2 -142 22
-171 34 -48 49 -62 102 -96 41 -25 60 -31 107 -31 64 0 110 25 167 91 39 45
49 48 62 15 4 -13 21 -33 36 -45 33 -26 113 -29 168 -6 20 8 36 12 36 8 0 -4
7 3 16 15 16 23 54 30 54 11 0 -7 -8 -18 -17 -26 -16 -12 -16 -13 8 -8 20 5
27 1 37 -19 12 -27 26 -33 37 -15 4 6 31 9 62 8 63 -3 80 12 63 56 -27 72 -5
102 80 107 34 2 45 -1 45 -12 0 -10 -12 -16 -37 -17 -20 -2 -47 -8 -60 -13
-18 -8 -11 -9 31 -6 29 3 59 10 65 16 21 17 37 87 30 128 -19 103 -80 145
-154 107 -26 -14 -33 -14 -52 -1 -18 11 -34 12 -73 5 -27 -6 -79 -9 -115 -9
-86 1 -98 -11 -102 -105 -2 -41 -7 -69 -13 -67 -6 2 -9 30 -7 66 3 75 -7 88
-76 96 -42 5 -47 8 -81 65 -49 81 -107 116 -198 121 -44 3 -82 -1 -108 -10z
m180 -45 c132 -60 164 -223 69 -349 -90 -117 -204 -123 -311 -16 -75 76 -81
209 -12 304 54 74 166 101 254 61z m578 -183 l-6 -43 29 26 c98 88 147 76 161
-38 l5 -50 -47 -6 c-26 -4 -56 -7 -66 -7 -18 0 -18 1 2 21 24 24 22 62 -4 67
-10 2 -29 -4 -43 -13 -25 -16 -26 -20 -22 -100 3 -72 6 -87 28 -111 14 -15 19
-25 10 -22 -8 3 -39 2 -68 -2 -56 -7 -53 -10 -38 45 10 35 -11 227 -27 242
-12 13 -18 11 -40 -9 -24 -22 -25 -25 -16 -92 5 -38 11 -77 14 -86 4 -11 -3
-23 -19 -33 -29 -20 -36 -14 -36 32 l0 36 -23 -27 c-44 -55 -126 -68 -185 -31
-21 13 -23 20 -22 101 1 48 -2 96 -6 106 -6 16 -4 18 10 13 10 -4 36 -7 58 -7
39 0 40 -1 25 -18 -26 -28 -23 -126 4 -153 22 -22 55 -19 75 7 20 25 26 134 9
160 l-14 22 57 -5 c31 -2 82 0 112 5 92 16 89 17 83 -30z m-489 -190 c-42 -73
-116 -128 -171 -128 -50 0 -121 41 -163 94 -9 11 3 6 30 -12 25 -17 66 -37 91
-43 60 -16 119 5 175 61 41 42 50 48 38 28z m116 -43 c14 -8 41 -14 60 -14 19
0 46 6 60 14 36 20 57 20 39 -1 -20 -24 -65 -44 -99 -44 -37 0 -85 23 -93 45
-8 18 0 19 33 0z"/>
<path d="M185 537 c-40 -40 -58 -99 -59 -190 -1 -65 1 -70 32 -98 41 -36 61
-37 95 -1 79 83 90 273 18 312 -32 17 -51 12 -86 -23z m73 -55 c35 -22 21
-139 -22 -189 -46 -53 -85 2 -66 93 17 79 53 118 88 96z"/>
<path d="M1335 623 c-112 -6 -133 -21 -113 -84 9 -32 6 -44 -47 -149 -32 -63
-73 -134 -91 -159 -31 -40 -33 -46 -20 -65 8 -13 21 -19 33 -17 10 3 60 5 111
5 59 1 92 5 92 12 0 18 35 44 59 44 18 0 22 -4 18 -20 -3 -11 3 -30 12 -41 14
-18 21 -20 39 -10 11 6 46 10 76 8 41 -3 57 0 61 11 4 12 -9 14 -84 10 l-90
-4 25 23 c20 18 24 31 22 63 l-2 41 -80 -7 c-45 -3 -84 -8 -88 -11 -15 -8 -8
-60 9 -74 14 -12 1 -15 -93 -20 -60 -3 -110 -4 -112 -3 -2 1 11 10 28 20 30
18 100 138 158 273 l24 54 -21 28 c-12 16 -21 29 -21 31 0 2 37 3 83 3 45 0
101 3 125 8 l43 7 -22 -29 c-18 -25 -21 -38 -15 -78 13 -100 59 -268 77 -287
18 -19 18 -19 29 8 5 15 10 37 10 49 0 12 3 32 6 45 6 21 7 21 23 -10 20 -40
86 -76 110 -61 21 13 21 73 1 84 -8 5 -45 22 -82 40 -66 30 -68 31 -68 68 0
64 22 75 137 68 78 -4 101 -3 114 9 14 13 14 8 -2 -38 -10 -29 -18 -66 -19
-81 0 -16 -4 -26 -10 -22 -5 3 -10 15 -10 26 0 32 -53 79 -89 79 -35 0 -63
-25 -59 -52 2 -15 25 -28 88 -52 88 -34 110 -55 110 -104 0 -13 -11 -34 -25
-47 -29 -30 -88 -33 -153 -8 -42 16 -44 16 -65 -7 l-22 -22 28 6 c15 4 50 0
79 -9 51 -15 113 -12 124 6 3 5 13 9 22 9 13 -1 8 -8 -16 -30 -38 -35 -63 -37
-134 -10 l-53 20 -20 -20 -20 -20 31 6 c18 3 41 1 54 -6 38 -20 111 -16 153 9
20 13 37 19 37 15 0 -4 11 3 25 16 l25 24 70 -18 c68 -18 70 -18 110 2 31 15
40 16 40 6 0 -19 -59 -54 -90 -54 -14 0 -45 9 -69 21 -40 18 -46 18 -60 4 -14
-13 -13 -15 9 -15 14 0 45 -7 69 -16 25 -8 56 -12 72 -9 36 8 78 41 89 71 11
27 23 30 42 10 30 -29 79 -46 136 -46 46 0 66 5 100 27 24 15 38 29 33 31 -6
2 -23 -6 -39 -18 -23 -17 -43 -22 -88 -21 -69 0 -107 14 -129 47 l-15 24 40
-21 c54 -28 133 -28 188 0 23 12 47 21 55 21 8 0 24 -21 37 -47 40 -81 56 -93
120 -93 47 0 62 4 84 25 14 13 26 29 26 34 0 6 9 15 21 22 16 8 35 7 84 -6 63
-17 65 -17 106 3 48 24 56 23 38 -6 -28 -45 -89 -53 -158 -21 -44 19 -45 19
-64 1 -19 -19 -19 -20 7 -15 14 3 40 0 57 -7 53 -22 113 -17 153 14 36 27 36
27 36 107 0 44 -5 90 -11 101 -8 14 -8 23 0 31 13 13 15 133 2 141 -17 11
-226 18 -250 9 -26 -10 -64 3 -110 39 -16 12 -41 18 -76 18 -47 0 -58 -5 -101
-40 -46 -38 -50 -39 -118 -39 -74 1 -110 -9 -156 -41 -30 -21 -40 -18 -40 15
0 36 -21 45 -131 51 -85 6 -110 4 -135 -9 -19 -10 -35 -12 -40 -7 -5 5 -59 12
-121 16 -105 7 -113 6 -143 -16 -18 -13 -38 -37 -45 -54 -14 -31 -17 -29 -28
21 -3 12 0 41 5 63 9 34 8 44 -7 60 -19 21 -18 21 -160 13z m1281 -78 c-19
-47 -21 -45 32 -45 48 0 49 -1 44 -26 -4 -24 -7 -25 -47 -20 l-42 7 -7 -62
c-9 -94 -7 -177 5 -185 6 -3 20 3 31 14 16 16 18 23 9 41 -7 11 -9 21 -7 21
12 0 86 -33 86 -38 0 -3 -11 -20 -25 -38 -44 -58 -137 -66 -164 -15 -6 11 -11
75 -11 144 l0 124 -42 -1 c-33 -1 -43 3 -46 17 -3 14 4 17 42 17 48 0 57 9 31
30 -25 21 -17 25 50 25 40 0 64 -4 61 -10z m-516 -94 c-11 -34 -18 -66 -15
-72 4 -5 2 -9 -2 -9 -5 0 -15 16 -22 35 -28 78 -150 89 -139 13 2 -17 15 -27
53 -40 126 -46 142 -60 137 -123 -3 -56 -91 -81 -171 -49 -37 14 -41 14 -67
-3 -28 -18 -28 -18 -20 2 5 11 11 45 15 75 l7 55 14 -30 c15 -30 73 -75 96
-75 21 0 44 30 44 56 0 21 -13 31 -87 67 l-88 42 1 39 c2 61 20 69 142 62 87
-5 104 -3 109 10 3 8 7 13 10 11 2 -3 -5 -32 -17 -66z m869 19 c-10 -28 -19
-64 -19 -81 0 -17 -4 -28 -10 -24 -5 3 -10 15 -10 25 0 54 -97 101 -134 65
-31 -32 -16 -55 50 -80 100 -38 122 -52 129 -85 9 -42 -2 -68 -35 -85 -38 -19
-84 -19 -137 1 -40 16 -45 16 -61 0 -25 -22 -35 -20 -22 3 5 11 10 35 11 53 0
36 17 86 18 57 2 -28 40 -67 78 -80 32 -10 38 -9 50 7 7 10 13 29 13 42 0 20
-13 29 -85 63 l-85 39 0 38 c0 66 21 76 139 69 80 -5 102 -3 111 8 20 24 19
18 -1 -35z m-560 -22 c18 -12 40 -36 47 -54 27 -63 27 -63 -113 -66 l-126 -3
25 -30 c21 -24 34 -30 68 -30 26 0 46 6 53 16 9 11 23 14 51 11 26 -3 41 0 47
9 7 11 9 10 9 -3 0 -10 -14 -24 -32 -33 -18 -9 -44 -22 -58 -30 -14 -8 -47
-15 -73 -15 -130 0 -201 110 -126 195 56 64 154 78 228 33z m-689 -18 c8 -5
12 -11 10 -13 -8 -8 -70 5 -70 14 0 12 41 11 60 -1z m301 -7 c12 -15 12 -16
-4 -10 -10 4 -27 7 -38 7 -10 0 -19 5 -19 10 0 16 47 11 61 -7z m860 0 c12
-15 12 -16 -4 -10 -10 4 -27 7 -38 7 -10 0 -19 5 -19 10 0 16 47 11 61 -7z
m-191 -8 c0 -16 -45 -21 -54 -6 -8 12 4 21 31 21 14 0 23 -6 23 -15z m8 -59
c13 -29 7 -36 -29 -36 -34 0 -43 13 -29 40 15 27 44 25 58 -4z m150 -64 c-9
-2 -31 5 -49 15 -17 10 -42 24 -55 31 -13 7 -24 17 -24 21 0 4 33 -8 73 -28
43 -21 65 -36 55 -39z m-1211 36 c41 -19 61 -33 51 -35 -15 -4 -32 4 -99 43
-59 34 -34 30 48 -8z m251 23 c9 -6 39 -20 66 -33 30 -14 43 -24 33 -26 -15
-3 -127 53 -127 64 0 6 9 5 28 -5z m-484 -100 c8 -13 -19 -21 -72 -21 -44 1
-46 2 -28 15 22 16 91 20 100 6z m1296 -90 c0 -5 -13 -19 -30 -31 -41 -29
-106 -25 -129 10 -15 23 -15 24 4 15 36 -15 89 -16 115 -1 31 17 40 19 40 7z"/>
<path d="M2266 418 c-29 -41 -21 -48 54 -48 75 0 83 7 54 48 -11 16 -25 22
-54 22 -29 0 -43 -6 -54 -22z"/>
<path d="M1350 435 c-24 -49 -46 -94 -48 -98 -4 -8 91 -8 115 1 6 2 9 10 7 17
-3 8 -11 49 -18 92 l-12 78 -44 -90z"/>
<path d="M1125 120 c-8 -13 125 -13 145 0 10 7 -9 10 -62 10 -42 0 -80 -4 -83
-10z"/>
<path d="M1445 110 c-22 -6 -10 -8 45 -8 50 0 68 2 55 8 -24 10 -59 10 -100 0z"/>
<path d="M850 90 c-11 -7 -6 -10 22 -10 20 0 40 5 43 10 8 13 -45 13 -65 0z"/>
</g>
</svg>
